HIERARCHY
ROOT Hips
{
	OFFSET 0.00000 0.00000 0.00000
	CHANNELS 6 Xposition Yposition Zposition Zrotation Yrotation Xrotation 
	JOINT LHipJoint
	{
		OFFSET 0 0 0
		CHANNELS 3 Zrotation Yrotation Xrotation
		JOINT LeftHip
		{
			OFFSET 1.26600 -1.82114 0.91038
			CHANNELS 3 Zrotation Yrotation Xrotation
			JOINT LeftKnee
			{
				OFFSET 2.50076 -6.87080 0.00000
				CHANNELS 3 Zrotation Yrotation Xrotation
				JOINT LeftAnkle
				{
					OFFSET 2.57364 -7.07102 0.00000
					CHANNELS 3 Zrotation Yrotation Xrotation
					JOINT LeftToe
					{
						OFFSET 0.13572 -0.37290 1.97004
						CHANNELS 3 Zrotation Yrotation Xrotation
						End Site
						{
							OFFSET 0.00000 -0.00000 1.01383
						}
					}
				}
			}
		}
	}
	JOINT RHipJoint
	{
		OFFSET 0 0 0
		CHANNELS 3 Zrotation Yrotation Xrotation
		JOINT RightHip
		{
			OFFSET -1.20803 -1.82114 0.91038
			CHANNELS 3 Zrotation Yrotation Xrotation
			JOINT RightKnee
			{
				OFFSET -2.54916 -7.00377 0.00000
				CHANNELS 3 Zrotation Yrotation Xrotation
				JOINT RightAnkle
				{
					OFFSET -2.56374 -7.04382 0.00000
					CHANNELS 3 Zrotation Yrotation Xrotation
					JOINT RightToe
					{
						OFFSET -0.23520 -0.64621 2.09921
						CHANNELS 3 Zrotation Yrotation Xrotation
						End Site
						{
							OFFSET -0.00000 -0.00000 1.10065
						}
					}
				}
			}
		}
	}
	JOINT lowerback
	{
		OFFSET 0 0 0
		CHANNELS 3 Zrotation Yrotation Xrotation
		JOINT Chest
		{
			OFFSET 0.05492 2.10797 -0.12074
			CHANNELS 3 Zrotation Yrotation Xrotation
			JOINT Chest2
			{
				OFFSET 0.04577 2.11592 -0.04483
				CHANNELS 3 Zrotation Yrotation Xrotation
				JOINT lowerneck
				{
					OFFSET 0 0 0
					CHANNELS 3 Zrotation Yrotation Xrotation
					JOINT Neck
					{
						OFFSET -0.10759 1.80167 0.15770
						CHANNELS 3 Zrotation Yrotation Xrotation
						JOINT Head
						{
							OFFSET 0.09237 1.77509 -0.40848
							CHANNELS 3 Zrotation Yrotation Xrotation
							End Site
							{
								OFFSET 0.03805 1.84093 -0.15754
							}
						}
					}
				}
				JOINT LeftCollar
				{
					OFFSET 0 0 0
					CHANNELS 3 Zrotation Yrotation Xrotation
					JOINT LeftShoulder
					{
						OFFSET 3.42372 1.09575 -0.28209
CHANNELS 3 Zrotation Xrotation Yrotation
						JOINT LeftElbow
						{
OFFSET 0 -4.956810 0.000000
CHANNELS 3 Zrotation Xrotation Yrotation
							JOINT LeftWrist
							{
OFFSET 0 -3.409150 0.000000
CHANNELS 3 Zrotation Xrotation Yrotation
								JOINT lhand
								{
									OFFSET 0 0 0
CHANNELS 3 Zrotation Xrotation Yrotation
									JOINT LFingers
									{
OFFSET 0 -0.616400 0.000000
CHANNELS 3 Zrotation Xrotation Yrotation
										End Site
										{
OFFSET 0 -0.496960 0.000000
										}
									}
								}
								JOINT LThumb
								{
OFFSET 0 0.000000 0.000000
CHANNELS 3 Zrotation Xrotation Yrotation
									End Site
									{
OFFSET 0 -0.504550 0.504550
									}
								}
							}
						}
					}
				}
				JOINT RightCollar
				{
					OFFSET 0 0 0
					CHANNELS 3 Zrotation Yrotation Xrotation
					JOINT RightShoulder
					{
						OFFSET -3.24731 1.15872 -0.32221
CHANNELS 3 Zrotation Xrotation Yrotation
						JOINT RightElbow
						{
OFFSET 0 -5.352000 0.000000
CHANNELS 3 Zrotation Xrotation Yrotation
							JOINT RightWrist
							{
OFFSET 0 -3.437210 -0.000000
CHANNELS 3 Zrotation Xrotation Yrotation
								JOINT rhand
								{
									OFFSET 0 0 0
CHANNELS 3 Zrotation Xrotation Yrotation
									JOINT RFingers
									{
OFFSET 0 -0.720090 0.000000
CHANNELS 3 Zrotation Xrotation Yrotation
										End Site
										{
OFFSET 0 -0.580560 0.000000
										}
									}
								}
								JOINT RThumb
								{
OFFSET 0 0.000000 0.000000
CHANNELS 3 Zrotation Xrotation Yrotation
									End Site
									{
OFFSET 0 -0.589420 0.589420
									}
								}
							}
						}
					}
				}
			}
		}
	}
}
MOTION
Frames: 11
Frame Time: 0.008333333333333333
9.446609 23.302513 -0.196116 2.131856 -4.120959 -2.021601 0.000000 0.000000 0.000000 -27.055102 -3.373027 0.680776 2.726940 10.239322 29.755244 1.617074 -7.880956 -22.769749 0.030049 1.107964 3.045924 0.000000 0.000000 0.000000 15.151871 7.748443 -46.835324 -12.846763 -18.720181 68.642974 -0.097945 -0.894350 -6.270146 -0.123657 -2.235783 6.159027 -3.170548 -0.638842 11.200112 1.201777 -1.166843 2.395733 3.206702 -0.547363 -3.683944 -8.125155 -2.024600 -15.344468 4.714179 -2.024513 27.443142 2.846458 -1.178779 11.631342 0.000000 0.000000 0.000000 4.588554 2.920043 -21.444145 23.793608 -34.945203 7.588056 13.705747 1.377788 -26.560754 0.000000 0.000000 0.000000 -7.125000 0.000000 0.000000 -17.760629 56.310232 5.055872 0.000000 0.000000 0.000000 -7.045221 1.806021 18.516255 -20.797661 -31.591417 -5.943621 -19.831537 -15.575516 -9.535725 0.000000 0.000000 0.000000 7.125000 0.000000 0.000000 5.090735 19.875148 3.069486
9.438351 23.288067 -0.073796 2.156554 -3.804821 -2.146984 0.000000 0.000000 0.000000 -27.056677 -3.146324 1.316197 2.705877 10.202938 29.636536 1.623524 -8.194970 -22.817573 0.031850 1.127555 3.100119 0.000000 0.000000 0.000000 15.382716 7.478224 -46.357766 -12.007247 -18.387127 66.004574 -0.050657 -1.460152 -4.986758 -0.076096 -1.777876 4.892233 -3.151945 -0.744339 10.957481 1.226012 -1.296673 2.374493 3.233733 -0.614003 -3.562008 -8.158057 -2.043157 -15.207472 4.715541 -2.058557 27.583769 2.850643 -1.201227 11.661377 0.000000 0.000000 0.000000 4.591128 3.034847 -21.826002 23.873089 -35.029832 7.633588 15.189175 1.229836 -24.734416 0.000000 0.000000 0.000000 -7.125000 0.000000 0.000000 -15.265764 54.833273 3.794023 0.000000 0.000000 0.000000 -7.120166 2.240946 18.656040 -20.868107 -31.674020 -5.980589 -20.468731 -16.446907 -9.205440 0.000000 0.000000 0.000000 7.125000 0.000000 0.000000 4.631000 20.181686 2.759364
9.430040 23.266079 0.048782 2.082297 -3.430044 -2.307302 0.000000 0.000000 0.000000 -26.926856 -2.932089 1.932046 2.698878 10.190799 29.596928 1.618927 -8.686185 -22.791311 0.045423 1.373357 3.776843 0.000000 0.000000 0.000000 15.667163 7.155738 -45.759251 -11.150489 -18.001567 63.261569 -0.011181 -2.002127 -3.518308 -0.069750 -1.703289 4.686418 -3.073280 -0.862932 10.782836 1.309166 -1.436579 2.375956 3.290253 -0.686144 -3.452982 -8.253954 -2.096261 -15.144699 4.752443 -2.127559 27.692199 2.873325 -1.240173 11.698183 0.000000 0.000000 0.000000 4.548409 3.127471 -22.603736 23.911254 -35.070254 7.655568 17.088238 -0.079978 -22.882637 0.000000 0.000000 0.000000 -7.125000 0.000000 0.000000 -12.461363 53.370674 2.608462 0.000000 0.000000 0.000000 -7.219753 2.633093 18.646287 -20.966896 -31.789682 -6.032507 -21.002342 -16.996712 -8.846868 0.000000 0.000000 0.000000 7.125000 0.000000 0.000000 4.243766 20.526491 2.493187
9.422136 23.235369 0.171880 2.085042 -3.102991 -2.479956 0.000000 0.000000 0.000000 -26.871276 -2.646946 2.447814 2.719438 10.226218 29.712576 1.651932 -9.053519 -23.033813 0.029771 1.031491 2.836068 0.000000 0.000000 0.000000 15.853247 6.850270 -45.096922 -10.304890 -17.572170 60.494967 0.016953 -2.593692 -1.893063 -0.094588 -1.948255 5.363740 -3.039197 -0.977809 10.659834 1.321374 -1.581255 2.370056 3.299212 -0.759637 -3.380470 -8.277053 -2.149591 -15.080661 4.793072 -2.218397 27.770409 2.881070 -1.280507 11.723493 0.000000 0.000000 0.000000 4.554128 3.168296 -23.053983 24.117958 -35.288029 7.774932 16.944783 -0.617754 -23.109713 0.000000 0.000000 0.000000 -7.125000 0.000000 0.000000 -12.780623 53.542292 2.832474 0.000000 0.000000 0.000000 -7.218510 2.975138 18.322845 -21.016284 -31.847406 -6.058567 -21.160683 -16.615792 -8.811261 0.000000 0.000000 0.000000 7.125000 0.000000 0.000000 4.129498 20.553824 2.422965
9.413017 23.200949 0.297950 1.977331 -2.867839 -2.644503 0.000000 0.000000 0.000000 -26.663640 -2.246019 2.873228 2.770202 10.313181 29.997220 1.721986 -9.367503 -23.532168 0.001811 0.240765 0.661515 0.000000 0.000000 0.000000 16.129361 6.690659 -44.315876 -9.487270 -17.107024 57.754390 0.029481 -3.245061 -0.231615 -0.182004 -2.730761 7.531051 -2.935119 -1.078945 10.501384 1.376516 -1.697798 2.368440 3.308245 -0.820157 -3.287000 -8.164842 -2.153196 -14.985762 4.653487 -2.224630 27.835099 2.809677 -1.291224 11.727169 0.000000 0.000000 0.000000 4.554511 3.110512 -22.568982 24.525823 -35.715181 8.011597 13.120223 1.633674 -26.744427 0.000000 0.000000 0.000000 -7.125000 0.000000 0.000000 -18.465289 56.365269 5.292202 0.000000 0.000000 0.000000 -7.252458 3.298983 17.935361 -21.029722 -31.863059 -6.065617 -21.076478 -16.099706 -9.139455 0.000000 0.000000 0.000000 7.125000 0.000000 0.000000 4.194631 20.210071 2.494222
9.400885 23.159305 0.425251 1.651610 -2.619273 -2.817847 0.000000 0.000000 0.000000 -26.154423 -1.788864 3.248414 2.843518 10.437080 30.404320 1.794925 -9.984149 -24.055318 0.000021 -0.029534 -0.080987 0.000000 0.000000 0.000000 16.595550 6.608735 -43.440364 -8.713490 -16.617080 55.089755 0.023129 -3.859870 1.460610 -0.268539 -3.329409 9.197644 -2.718560 -1.164103 10.325528 1.575899 -1.775817 2.381196 3.397978 -0.862853 -3.170920 -8.004942 -2.150281 -14.909558 4.344443 -2.181101 27.873482 2.672890 -1.294703 11.718779 0.000000 0.000000 0.000000 4.492890 3.106724 -22.725947 24.765421 -35.963232 8.151735 11.778339 2.325718 -28.320588 0.000000 0.000000 0.000000 -7.125000 0.000000 0.000000 -20.837096 57.572198 6.612424 0.000000 0.000000 0.000000 -7.461723 3.619645 17.636698 -21.047079 -31.883306 -6.074779 -20.520486 -16.314268 -9.323439 0.000000 0.000000 0.000000 7.125000 0.000000 0.000000 4.595825 20.052743 2.750286
9.387573 23.110184 0.549134 1.552253 -2.290485 -2.994016 0.000000 0.000000 0.000000 -25.865428 -1.387111 3.538790 2.937521 10.593119 30.919757 1.857592 -10.679906 -24.513180 0.000193 0.094929 0.260907 0.000000 0.000000 0.000000 16.834802 6.405226 -42.597438 -7.986999 -16.108788 52.514474 -0.008290 -4.291595 3.304945 -0.194605 -2.837782 7.827644 -2.707166 -1.249373 10.137109 1.697047 -1.879169 2.419371 3.523642 -0.918015 -3.015265 -8.064265 -2.186426 -14.792519 4.339003 -2.223401 27.790984 2.673477 -1.320405 11.667308 0.000000 0.000000 0.000000 4.482860 3.078528 -23.524544 24.709196 -35.905242 8.118762 13.336642 1.036565 -26.848478 0.000000 0.000000 0.000000 -7.125000 0.000000 0.000000 -18.307981 56.508565 5.308598 0.000000 0.000000 0.000000 -7.666105 3.919891 17.489514 -21.040652 -31.875774 -6.071397 -20.129382 -16.803866 -9.529687 0.000000 0.000000 0.000000 7.125000 0.000000 0.000000 4.878201 19.861191 2.941226
9.375691 23.068043 0.669616 1.720539 -1.931452 -3.197387 0.000000 0.000000 0.000000 -25.891233 -1.012113 3.755342 3.063201 10.796583 31.596889 1.843484 -11.230523 -24.465377 0.000008 0.015102 0.041477 0.000000 0.000000 0.000000 16.804263 6.108476 -41.736706 -7.305876 -15.583048 50.020085 -0.060827 -4.711241 5.118768 -0.116914 -2.200656 6.060789 -2.920284 -1.348691 9.953880 1.706701 -2.028426 2.488059 3.663802 -0.996263 -2.822475 -8.307921 -2.226060 -14.670738 4.555927 -2.287354 27.748843 2.786812 -1.348344 11.636956 0.000000 0.000000 0.000000 4.490101 3.093193 -24.640535 24.583980 -35.775756 8.045433 17.101941 -1.385794 -22.705675 0.000000 0.000000 0.000000 -7.125000 0.000000 0.000000 -12.380502 53.193821 2.547997 0.000000 0.000000 0.000000 -7.808029 4.167075 17.442639 -20.961475 -31.783324 -6.029628 -20.281795 -16.964169 -9.979685 0.000000 0.000000 0.000000 7.125000 0.000000 0.000000 4.775354 19.374436 2.930830
9.364611 23.022966 0.792412 1.744851 -1.629634 -3.402627 0.000000 0.000000 0.000000 -25.783831 -0.683385 3.930340 3.228567 11.055661 32.468446 1.809977 -11.862290 -24.312042 0.000178 -0.081809 -0.224668 0.000000 0.000000 0.000000 16.901414 5.871966 -40.834152 -6.665862 -15.041202 47.594123 -0.125554 -5.253859 6.790842 -0.115836 -2.194499 6.043403 -3.022798 -1.442405 9.785154 1.788429 -2.156416 2.521421 3.814729 -1.063389 -2.676578 -8.422197 -2.245585 -14.622455 4.530375 -2.283593 27.855925 2.799597 -1.364271 11.670670 0.000000 0.000000 0.000000 4.367694 3.202625 -24.661607 25.047110 -36.251613 8.317887 15.816109 -0.105628 -24.366788 0.000000 0.000000 0.000000 -7.125000 0.000000 0.000000 -14.425865 54.602400 3.468389 0.000000 0.000000 0.000000 -7.997380 4.407229 17.119031 -20.862901 -31.667917 -5.977803 -19.698330 -16.485227 -10.171547 0.000000 0.000000 0.000000 7.125000 0.000000 0.000000 5.192606 19.214332 3.207756
9.352093 22.964428 0.918088 1.767205 -1.278422 -3.585616 0.000000 0.000000 0.000000 -25.669864 -0.511425 4.055117 3.433602 11.364748 33.521569 1.794202 -12.738715 -24.322749 0.000118 0.029959 0.082328 0.000000 0.000000 0.000000 16.950248 5.650000 -39.961287 -6.069260 -14.491054 45.251527 -0.208722 -5.659119 8.446657 -0.090741 -1.939321 5.337959 -3.115385 -1.529331 9.596113 1.863206 -2.273917 2.580581 3.949269 -1.126926 -2.493522 -8.444998 -2.281421 -14.594604 4.403068 -2.291389 27.774099 2.752909 -1.384669 11.633853 0.000000 0.000000 0.000000 4.280104 3.302893 -25.181876 25.375623 -36.585158 8.512907 16.593386 -0.362530 -24.031959 0.000000 0.000000 0.000000 -7.125000 0.000000 0.000000 -13.472639 54.422823 3.165562 0.000000 0.000000 0.000000 -8.152703 4.649778 16.881728 -20.851591 -31.654754 -5.971845 -19.351015 -16.216093 -10.107598 0.000000 0.000000 0.000000 7.125000 0.000000 0.000000 5.438755 19.306125 3.349671
9.338332 22.898497 1.042200 1.799610 -0.838660 -3.765895 0.000000 0.000000 0.000000 -25.540563 -0.391430 4.090016 3.686584 11.729127 34.783087 1.796376 -13.514193 -24.453400 0.000622 -0.119087 -0.327284 0.000000 0.000000 0.000000 16.961683 5.398299 -39.092889 -5.522817 -13.944582 43.025877 -0.285796 -6.149264 9.792160 -0.091965 -1.955804 5.383598 -3.193771 -1.629779 9.436041 1.896032 -2.409607 2.634690 4.034452 -1.199149 -2.331828 -8.491154 -2.330391 -14.393189 4.394580 -2.359417 27.525967 2.743494 -1.418799 11.503510 0.000000 0.000000 0.000000 4.314222 3.349363 -25.811940 25.603854 -36.814676 8.649294 17.186435 -1.000667 -23.664993 0.000000 0.000000 0.000000 -7.125000 0.000000 0.000000 -12.702666 54.171724 2.899855 0.000000 0.000000 0.000000 -8.226975 5.080820 17.011302 -20.991695 -31.818551 -6.045629 -19.870428 -16.544886 -9.824803 0.000000 0.000000 0.000000 7.125000 0.000000 0.000000 5.065944 19.567706 3.089505
